<svg width="8" height="15" viewBox="0 0 8 15" fill="none"
    xmlns="http://www.w3.org/2000/svg">
    <path d="M5.31171 7.32326L0.217436 12.598C0.0771651 12.7429 0 12.9366 0 13.1432C0 13.3498 0.0771651 13.5435 0.217436 13.6886L0.663824 14.1505C0.803874 14.2959 0.991087 14.3759 1.19059 14.3759C1.39009 14.3759 1.57708 14.2959 1.71724 14.1505L7.78278 7.8705C7.9235 7.72492 8.00055 7.53039 8 7.3236C8.00055 7.1159 7.92361 6.9216 7.78278 6.77591L1.72289 0.501954C1.58273 0.356605 1.39574 0.276594 1.19612 0.276594C0.996623 0.276594 0.809631 0.356605 0.66936 0.501954L0.223083 0.963906C-0.0673122 1.26458 -0.0673122 1.75404 0.223083 2.05459L5.31171 7.32326Z" fill="#12CDD9"/>
</svg>
