<svg width="24" height="24" viewBox="0 0 24 24" fill="none" xmlns="http://www.w3.org/2000/svg">
<path d="M11.9999 21C11.8683 21.0007 11.7378 20.9755 11.616 20.9258C11.4941 20.876 11.3833 20.8027 11.2899 20.71L3.51987 12.93C2.54523 11.9452 1.99854 10.6156 1.99854 9.22999C1.99854 7.84442 2.54523 6.51481 3.51987 5.52999C4.50213 4.5505 5.8327 4.00046 7.21987 4.00046C8.60704 4.00046 9.93761 4.5505 10.9199 5.52999L11.9999 6.60999L13.0799 5.52999C14.0621 4.5505 15.3927 4.00046 16.7799 4.00046C18.167 4.00046 19.4976 4.5505 20.4799 5.52999C21.4545 6.51481 22.0012 7.84442 22.0012 9.22999C22.0012 10.6156 21.4545 11.9452 20.4799 12.93L12.7099 20.71C12.6164 20.8027 12.5056 20.876 12.3838 20.9258C12.2619 20.9755 12.1315 21.0007 11.9999 21Z" fill="#FB4141"/>
</svg>
