<svg width="24" height="25" viewBox="0 0 24 25" fill="none" xmlns="http://www.w3.org/2000/svg">
<g clip-path="url(#clip0_2019_2148)">
<path d="M19.1401 13.1811C19.1801 12.8811 19.2001 12.5711 19.2001 12.2411C19.2001 11.9211 19.1801 11.6011 19.1301 11.3011L21.1601 9.72114C21.3401 9.58114 21.3901 9.31114 21.2801 9.11114L19.3601 5.79114C19.2401 5.57114 18.9901 5.50114 18.7701 5.57114L16.3801 6.53114C15.8801 6.15114 15.3501 5.83114 14.7601 5.59114L14.4001 3.05114C14.3601 2.81114 14.1601 2.64114 13.9201 2.64114H10.0801C9.84011 2.64114 9.65011 2.81114 9.61011 3.05114L9.25011 5.59114C8.66011 5.83114 8.12011 6.16114 7.63011 6.53114L5.24011 5.57114C5.02011 5.49114 4.77011 5.57114 4.65011 5.79114L2.74011 9.11114C2.62011 9.32114 2.66011 9.58114 2.86011 9.72114L4.89011 11.3011C4.84011 11.6011 4.80011 11.9311 4.80011 12.2411C4.80011 12.5511 4.82011 12.8811 4.87011 13.1811L2.84011 14.7611C2.66011 14.9011 2.61011 15.1711 2.72011 15.3711L4.64011 18.6911C4.76011 18.9111 5.01011 18.9811 5.23011 18.9111L7.62011 17.9511C8.12011 18.3311 8.65011 18.6511 9.24011 18.8911L9.60011 21.4311C9.65011 21.6711 9.84011 21.8411 10.0801 21.8411H13.9201C14.1601 21.8411 14.3601 21.6711 14.3901 21.4311L14.7501 18.8911C15.3401 18.6511 15.8801 18.3311 16.3701 17.9511L18.7601 18.9111C18.9801 18.9911 19.2301 18.9111 19.3501 18.6911L21.2701 15.3711C21.3901 15.1511 21.3401 14.9011 21.1501 14.7611L19.1401 13.1811ZM12.0001 15.8411C10.0201 15.8411 8.40011 14.2211 8.40011 12.2411C8.40011 10.2611 10.0201 8.64114 12.0001 8.64114C13.9801 8.64114 15.6001 10.2611 15.6001 12.2411C15.6001 14.2211 13.9801 15.8411 12.0001 15.8411Z" fill="#92929D"/>
</g>
<defs>
<clipPath id="clip0_2019_2148">
<rect width="24" height="24" fill="white" transform="translate(0 0.24115)"/>
</clipPath>
</defs>
</svg>
