<svg width="17" height="16" viewBox="0 0 17 16" fill="none" xmlns="http://www.w3.org/2000/svg">
<g clip-path="url(#clip0_3620_145)">
<path d="M12.2066 14C12.1 14.0004 11.9949 13.9753 11.9 13.9267L8.49996 12.1467L5.09996 13.9267C4.98956 13.9847 4.86508 14.0106 4.74068 14.0015C4.61628 13.9923 4.49695 13.9484 4.39625 13.8748C4.29555 13.8012 4.21752 13.7008 4.17104 13.585C4.12456 13.4693 4.11148 13.3428 4.1333 13.22L4.79996 9.46667L2.0533 6.8C1.9676 6.71449 1.90681 6.60725 1.87745 6.4898C1.84809 6.37235 1.85126 6.24912 1.88663 6.13334C1.92527 6.01485 1.99635 5.90957 2.0918 5.82944C2.18725 5.74931 2.30325 5.69754 2.42663 5.68L6.22663 5.12667L7.89996 1.70667C7.95455 1.59396 8.03979 1.4989 8.1459 1.43239C8.25202 1.36587 8.37473 1.3306 8.49996 1.3306C8.6252 1.3306 8.74791 1.36587 8.85402 1.43239C8.96014 1.4989 9.04537 1.59396 9.09996 1.70667L10.7933 5.12L14.5933 5.67334C14.7167 5.69087 14.8327 5.74265 14.9281 5.82278C15.0236 5.90291 15.0947 6.00819 15.1333 6.12667C15.1687 6.24245 15.1718 6.36568 15.1425 6.48313C15.1131 6.60058 15.0523 6.70782 14.9666 6.79334L12.22 9.46L12.8866 13.2133C12.9104 13.3383 12.898 13.4675 12.8507 13.5856C12.8035 13.7038 12.7234 13.8059 12.62 13.88C12.4992 13.9646 12.3539 14.0068 12.2066 14Z" fill="#FF8700"/>
</g>
<defs>
<clipPath id="clip0_3620_145">
<rect width="16" height="16" fill="white" transform="translate(0.5)"/>
</clipPath>
</defs>
</svg>
